<svg version="1.2" xmlns="http://www.w3.org/2000/svg" viewBox="0 0 1024 1024" width="1024" height="1024"><defs><clipPath clipPathUnits="userSpaceOnUse" id="cp1"><path d="m1115.21-134.62v1241.33h-1241.58v-1241.33z"/></clipPath></defs><style>.a{fill:#b60}.b{fill:#b25b00}.c{fill:#e08000}.d{fill:#eb8b00}.e{fill:#ef9100}.f{fill:#c76e00}.g{fill:#ce6e00}.h{fill:#f79900}.i{fill:#ffa902}.j{fill:#f59900}.k{fill:#fea400}.l{fill:#ffaf06}.m{fill:#fea200}.n{fill:#be6800}.o{fill:#dd7c00}.p{fill:#c96b00}.q{fill:#dd8200}.r{fill:#ea8c00}.s{fill:#f59b00}.t{fill:#fea500}.u{fill:#ca7000}.v{fill:#e28100}.w{fill:#f49900}.x{fill:#ffb10b}.y{fill:#ffbb13}.z{fill:#ffa905}.A{fill:#faa100}.B{fill:#ffb812}.C{fill:#ffcb24}.D{fill:#ffc31c}.E{fill:#ffb10a}.F{fill:#ffc119}.G{fill:#bf6700}.H{fill:#e68d00}.I{fill:#ffd027}.J{fill:#cd7500}.K{fill:#c06900}.L{fill:#d47b00}.M{fill:#eb8e00}.N{fill:#c66d00}.O{fill:#bd6200}.P{fill:#cf7100}.Q{fill:#d57500}.R{fill:#e08400}.S{fill:#d87a00}.T{fill:#f49f00}.U{fill:#ffb308}.V{fill:#ffa600}.W{fill:#ffc61d}.X{fill:#ec9300}.Y{fill:#ffbb14}.Z{fill:#ffa901}.a0{fill:#ffc319}.a1{fill:#ffd832}.a2{fill:#ffc721}.a3{fill:#ffc823}.a4{fill:#ffbd11}.a5{fill:#ffc524}.a6{fill:#ffce2c}.a7{fill:#ffc016}.a8{fill:#ffb708}.a9{fill:#ffc011}.aa{fill:#f59f00}.ab{fill:#ffb609}.ac{fill:#ffc01a}.ad{fill:#d57900}.ae{fill:#e08500}.af{fill:#f89f00}.ag{fill:#ffba0c}.ah{fill:#ffc41f}.ai{fill:#da7f00}.aj{fill:#d07700}.ak{fill:#f09600}.al{fill:#ffae05}.am{fill:#ffbe1a}.an{fill:#ffcd29}.ao{fill:#fb9c00}.ap{fill:#e38500}.aq{fill:#ffae07}.ar{fill:#ffad02}.as{fill:#ffaf0a}.at{fill:#ffaa03}.au{fill:#ffda35}.av{fill:#ffcd23}.aw{fill:#ffce28}.ax{fill:#ffd834}.ay{fill:#ffc21b}.az{fill:#ffae08}.aA{fill:#ffd331}.aB{fill:#ffc722}.aC{fill:#ffb806}.aD{fill:#ffc620}.aE{fill:#ffce26}.aF{fill:#ffe350}.aG{fill:#ffd839}.aH{fill:#ffb40f}.aI{fill:#ffde3f}.aJ{fill:#ffd935}.aK{fill:#ffbc11}.aL{fill:#ffc420}.aM{fill:#ffb910}.aN{fill:#ffad09}.aO{fill:#ffb811}.aP{fill:#ffb208}.aQ{fill:#fca400}.aR{fill:#fb9e00}.aS{fill:#e88e00}.aT{fill:#fca500}</style><g clip-path="url(#cp1)"><path class="a" d="m808 677.3l94.5 55.9-143.6 56-51.7-3z"/><path class="b" d="m956.9 570.9l-57.9 165.7 117-145.7z"/><path class="c" d="m806.5 683.2l14.7-131.9 140.3 20.9z"/><path class="d" d="m753.4 572l69.8-19.8-13 127.9z"/><path class="e" d="m666.8 618.2l89.2-46 56.8 111.2z"/><path class="f" d="m960 572.2l-58.9 161-91.6-53.1z"/><path class="g" d="m616 711.5l92.4 74.4 102.4-107.4z"/><path class="d" d="m616 714.2l50.6-104.5 145.4 70.4z"/><path class="h" d="m507.8 653.3l109.8 61.5 49.2-99.4z"/><path class="i" d="m511.6 489v166.6l155.2-38.8z"/><path class="j" d="m663 621.8l35.1-65.4 61.6 15.7z"/><path class="k" d="m652 526l13.3 95.7 36.1-63.8z"/><path class="l" d="m505.1 485l161.2 133.7-0.7-11.9-11.5-79.9z"/><path class="h" d="m655.7 486l-7.3 40 50.1 31.9z"/><path class="m" d="m668.3 420l-17.1 107.4-139.6-39.9z"/><path class="n" d="m1012.9 432.1l-54.1 141.2 55.8 17.6z"/><path class="o" d="m960.3 573.6l54.2-141.5-87.8 52.2z"/><path class="p" d="m928.4 483.1l33.1 90.6-141.2-19.4z"/><path class="q" d="m894.3 438l-73.1 118.5 108.4-72.8z"/><path class="r" d="m891.3 436.2l36.9 48.4 86.3-50.8-113.3-14.2z"/><path class="r" d="m895.4 437.2l27-37.2 91.4 34.4z"/><path class="s" d="m835 415.6l17.1 95.9 42.7-72.5z"/><path class="s" d="m816.3 394l59.8 68.5 19.3-23.9z"/><path class="t" d="m762.4 365.4l161.7 34.5-30 39.8z"/><path class="u" d="m921.2 260.4v140.8l92.2 33.9z"/><path class="v" d="m845.1 313.7l77.3 87.5-1.2-142.2z"/><path class="w" d="m761.3 366.5l86-54.5 76.7 89.7z"/><path class="x" d="m627.8 340.3l136.8 27.4 85.1-55z"/><path class="y" d="m631.6 340.7l36.2 78.7 36.4-32.5 62.2-20.6z"/><path class="z" d="m632.6 340.6l36.4 80-157.6 70.3 1.2-8.1z"/><path class="A" d="m778.1 135.7l68.4 178 74.7-53.3z"/><path class="B" d="m511.4 269.3v221.6l122.5-150z"/><path class="C" d="m511.6 270.5l153.8-77.6-33 148z"/><path class="D" d="m663 190.3l-32.1 150.6 218.4-27.2z"/><path class="E" d="m665.4 192.9l114-57.2 68.6 179.4z"/><path class="F" d="m510.3 44.4l153.7 151.4 117.8-58.9z"/><path class="G" d="m511.6 783.4l200.1 2.5-93.7-74.3z"/><path class="H" d="m511.5 784.1l0.1-128.8 107.1 57.4z"/><path class="I" d="m511.8 45.2l-0.4 226.6 154-77.4z"/><path class="J" d="m791.8 880.1l79.1-11-113.5-37.4z"/><path class="K" d="m789.1 878.6l13.7 59.7 67.5-69.8z"/><path class="L" d="m669.9 976.8l121.9-99.2 11.6 60z"/><path class="M" d="m595.1 897.7l97.7 63.9 100.5-84z"/><path class="N" d="m599.7 898.1l157.7-67.2 37.2 47.9z"/><path class="O" d="m598.9 898.7l69.1-71.8 89 4.8-140.7 61.5z"/><path class="P" d="m511.5 825l87.2 76.1 74.1-74.4z"/><path class="Q" d="m506.5 1015.9l170.5-40.7 18.1-16.5-177.8 48.4z"/><path class="R" d="m512 1016.2l87.3-119.3 93.8 63.6-177.3 55.4z"/><path class="S" d="m441.2 879.5l158.1 21.1-87.3-76z"/><path class="T" d="m442.6 878.9l67.5 137 3.6-0.2 85.6-116.9z"/><path class="U" d="m512 1016.2l-68.4-138.1-84.3 87.5 145.8 49.8z"/><path class="V" d="m353.2 973l7.1-9.8 147.1 53.1z"/><path class="W" d="m274 829.2l17.1 76.8 153.5-25.9-9.6-4.9z"/><path class="X" d="m274.7 829.8l169.9 50.7 13.4-12 54-43.6z"/><path class="Y" d="m290.1 903.7l63.7 69.4 90.9-94.5z"/><path class="Z" d="m229.7 938l62.1-33.7 67.2 70.4z"/><path class="a0" d="m222.8 884.3l8.5 53.9 64.6-34.2z"/><path class="Z" d="m156.1 869.6l77.3 69.3-9.4-56.9z"/><path class="a1" d="m273.5 830l5.1 3.6 13.2 70.7-71.9-20z"/><path class="a2" d="m155.3 869.6l119.3-40-6.9 10.8-45.2 45z"/><path class="a3" d="m396.6 444.5l116 46.1v-224.6z"/><path class="a4" d="m332.1 395.5l30.2 47.4h38.8z"/><path class="a5" d="m360.6 514.2l1.7-72.6 40.8-0.3z"/><path class="a6" d="m355.3 518.2l-5.2 60 52.2-137z"/><path class="a7" d="m348.9 577l162.7-89-112-45.1z"/><path class="a8" d="m436.2 617l76.4 41.7v-174.6z"/><path class="a9" d="m346.6 576.8l91.8 41.4 74.2-132z"/><path class="aa" d="m512.6 653.9l0.3 129.1-3.7-0.5-122.3-83.7c-1.2 0 125.7-44.9 125.7-44.9z"/><path class="ab" d="m389.2 702.2l49.3-88.1 73.5 40.4-0.4 2.5z"/><path class="ac" d="m390.3 707.8l-42.5-131.2 92.9 38.1z"/><path class="ad" d="m266.8 788.5l111.1-83.5 15.2-4.5 119.5 82.8z"/><path class="ae" d="m260.4 730.9l9 57.2 123.7-90.4z"/><path class="af" d="m289.8 623.9l103.3 77.2-4.9 1.9-128.6 28.8z"/><path class="ag" d="m350.7 576.2l42.4 126-104.6-76.6z"/><path class="a6" d="m301.8 571.3l50.8 6.9 7.4-64z"/><path class="ah" d="m289.5 626.7l65.4-49.6-51.6-8.5z"/><path class="ai" d="m8.7 589.4l113.5 143.8 24.5-33.1-129.4-107.3z"/><path class="aj" d="m143.8 700.1l127.9 89.1-150.8-56z"/><path class="ak" d="m142.8 700.5v2.8l127.3 85.1-8.5-58.1z"/><path class="al" d="m292.9 624.1l-31.3 108-117.6-30.3 144.3-77.6z"/><path class="am" d="m209.4 560l-67.7 143.9 150.1-78.5z"/><path class="an" d="m207.1 558.8l83.6 67.9 14.8-59.2z"/><path class="ao" d="m83.4 543.5l128.3 14.8-66.5 143.3z"/><path class="ap" d="m84.7 544l63.2 161.6-140.5-116.8z"/><path class="aq" d="m169.6 489l41.5 72-131.4-16.2z"/><path class="m" d="m10.8 432.1l-2.8 157.7 81.4-45.6z"/><path class="ar" d="m129.5 414.5l-43.2 129-76.1-110.8z"/><path class="t" d="m127.5 416.5l42.1 75.2-86.3 53.4z"/><path class="as" d="m126.2 416.5l59 8.7-15.7 68.1z"/><path class="at" d="m126.3 416.8l98.9-32.6-41.2 41.5-56.7-7.2z"/><path class="au" d="m367.8 187.7l144.6-143.4 0.4 225.4-4.8 0.3z"/><path class="av" d="m329 349.3l36.2-165.7 146.4 86.9z"/><path class="aw" d="m276.2 330.3l55.1 19.5 37.1-164.8z"/><path class="ax" d="m327.8 347.2l184.8-78.6-114.5 176.6z"/><path class="ay" d="m327.7 344.1l3.5 52.6 65.5 44.9z"/><path class="Y" d="m329.2 346.6l3.7 50.5-64.4-28.8z"/><path class="az" d="m275 328.5l-3.3 41.2 60.4-21.6z"/><path class="aA" d="m151.8 303.1l216.6-117.2 1.1 1.7-93.4 144.7z"/><path class="aB" d="m153.8 302.1l123.8 28.5-151.8 88.8 1.1-10.3z"/><path class="aC" d="m155.9 297.8l-29.3 119.3-117.1 16.7z"/><path class="aD" d="m10.2 435.7l91.9-172.3 53.2 37.3z"/><path class="aE" d="m243.8 136.4l4.8 0.6-93.8 165.8-53.2-38.5z"/><path class="aF" d="m512 45.2v5.1l-142.6 136.9-123.5-50.3z"/><path class="aG" d="m247.8 136.4l122.8 49.9-219.3 118.4z"/><path class="aH" d="m276.9 328.8l-3.8 40.9-146.3 48.1z"/><path class="aD" d="m149.8 68.4l52.9 34.1 15.3-20.1z"/><path class="a6" d="m216.8 53.3l0.9 29.8-69.6-13.7z"/><path class="aI" d="m209.6 31.6l7.5 23.4-68.2 14.9z"/><path class="aJ" d="m150.9 70.4l31.9-62.2 28.3 25.6z"/><path class="aJ" d="m151.6 70.4l-14.6-63.2 46.9 1.2z"/><path class="aK" d="m153.1 69.5l-15.3-62.7-34 39z"/><path class="aL" d="m156.3 70l-52.7-25.7-0.7 28.9z"/><path class="aM" d="m156.7 67.7l-47.4 26.1-7.2-21.5z"/><path class="aN" d="m152.7 68.3l-5.8 54.6-38.3-29.6z"/><path class="aO" d="m178.3 121.2l-26.5-53-5.5 54.7z"/><path class="aP" d="m203.4 101.8l-53-34.6 25.1 55.2z"/><path class="aP" d="m200.4 177l1.8-75.2 43.4 35.5z"/><path class="a4" d="m203.2 180l-26.2-59.1 26.4-19.6z"/><path class="aD" d="m877.8 68.7l-55.9 35.1-13.9-20.7z"/><path class="a6" d="m807.2 55.7l0.3 29.5 69-15z"/><path class="aI" d="m813.3 33.9l-6.3 24.2 68.7 13.1z"/><path class="aJ" d="m873.7 71.8l-31.9-62.2-28 25.6z"/><path class="aJ" d="m872.7 73.5l16.3-65.3-48.9 1.6z"/><path class="aK" d="m869.9 74.2l16.6-67 35.9 39.5z"/><path class="at" d="m871.7 71.2l49.9-25.4 0.2 29.4z"/><path class="aQ" d="m869.9 70l45.4 25.2 7.2-21.4z"/><path class="aR" d="m871.9 69.8l5.8 54.5 38.7-31z"/><path class="aO" d="m846.3 122.5l26.9-52.9 5.1 54.7z"/><path class="aP" d="m820.6 103l54.9-34.1-27.8 53.6z"/><path class="aS" d="m775.7 135.7l75.2-13.3-30.3 52.1z"/><path class="aT" d="m773 138l52.8-36.6 27.8 21.9z"/></g></svg>