<svg xmlns="http://www.w3.org/2000/svg" viewBox="0 0 1024 1024"><path fill="#b60" d="m771.6 672 77 43.9-118.5 46.2-42.9-2Z"/><path fill="#b25b00" d="m896 583.1-49.3 134.3 95.5-118.9Z"/><path fill="#c76e00" d="m896 583.1-48.6 132.8-77-42.7Z"/><path fill="#e08000" d="m772 673.1 9-105.4 116.2 15.4Z"/><path fill="#ffaa03" d="m727.9 583.8 55.3-17.2-10.9 108.8Z"/><path fill="#ef9100" d="m654.2 621 73.5-37.9 43.9 90.1Z"/><path fill="#ce6e00" d="m612.3 698 76.3 60.5 83-86.5Z"/><path fill="#eb8b00" d="m612.7 698.1 41.5-78.2L770.4 672Z"/><path fill="#f79900" d="m523 650 90.6 50.7 40.6-82Z"/><path fill="#ffa902" d="M526.2 514.4v137.5l128-32Z"/><path fill="#f59900" d="m653 621 29.7-49.7 46.2 11.8Z"/><path fill="#fea400" d="m643.6 546.4 10.5 73.6 28.6-48.7Z"/><path fill="#ffaf06" d="M523.5 512.3 654.8 621l-11.1-75.3Z"/><path fill="#f79900" d="m645.9 519.1-4.3 26.3 38.7 25.9Z"/><path fill="#fea200" d="m655.4 457.5-14.1 88.6-115.1-32.9Z"/><path fill="#be6800" d="m941 470.5-45 113.8 45 14.2Z"/><path fill="#dd7c00" d="M896.2 584.2 941 469.3l-72.5 41.3Z"/><path fill="#c96b00" d="m869.9 509.6 27.3 74.7-116.4-16Z"/><path fill="#dd8200" d="m841.8 472.4-60.5 94.9 88.6-57.7Z"/><path fill="#ea8c00" d="m841.5 472.9 28.4 36.7 71.1-40.3-96 2.4Z"/><path fill="#ea8c00" d="m842.7 471.7 23.7-30.8 74.6 29.6Z"/><path fill="#f59b00" d="m792.9 453.9 15.3 69.7 34-50.4Z"/><path fill="#f59b00" d="m777.5 436.1 49.3 56.5 15.9-19.7Z"/><path fill="#fea500" d="m733.6 413.6 132.8 27.3-24.9 32Z"/><path fill="#ca7000" d="m864 325.9 1.2 115 75.8 29.6Z"/><path fill="#e28100" d="m801.2 369.8 64.5 72-1.7-117.1Z"/><path fill="#f49900" d="m734.8 413.6 68.8-43.8 61.7 71.2Z"/><path fill="#ffb10b" d="m624.1 392.3 114.3 20.1 65.2-42.6Z"/><path fill="#ffbb13" d="m625.1 392.1 30.3 64.2 29.6-26.1 53.4-18.9Z"/><path fill="#ffa905" d="m625.8 393.5 29.6 64-129.2 55.7Z"/><path fill="#faa100" d="m747.3 222.6 55.1 147.2 61.6-43.9Z"/><path fill="#ffb812" d="M526.2 334.2v179L627 392.3Z"/><path fill="#ffcb24" d="m526.2 334.2 126.8-64-27.2 122.1Z"/><path fill="#ffc31c" d="m653.5 268.8-28.9 123.5 180.1-22.5Z"/><path fill="#ffb10a" d="m653 270.2 94.9-45L803.6 371Z"/><path fill="#ffc119" d="m526.2 149.3 125.7 123.3L749 224Z"/><path fill="#bf6700" d="m526.2 757.3 164.5 2.1-76.8-61.3Z"/><path fill="#e68d00" d="M526.2 757.3V653l89.1 46Z"/><path fill="#ffd027" d="M526.2 149.3v184.9L653 271.4Z"/><path fill="#cd7500" d="m757.3 828.4 65.2-9.8-93.6-33.3Z"/><path fill="#c06900" d="m757.3 827.3 9.5 52.1 55.7-60.5Z"/><path fill="#d47b00" d="m660.7 913.8 96.6-87.7 9.5 53.3Z"/><path fill="#eb8e00" d="m595 844 80.6 56.8 82.9-74.7Z"/><path fill="#c66d00" d="m598.8 844.3 130.1-59.7 30.7 42.6Z"/><path fill="#bd6200" d="M598.2 844.9 659 781l69.6 4.3Z"/><path fill="#cf7100" d="m529.8 778.7 68.7 66.3 60.6-64.1Z"/><path fill="#d57500" d="m522.7 949.3 139.8-35.5 15-15.6Z"/><path fill="#e08400" d="m521.1 949 76.2-104 78.6 54.8Z"/><path fill="#d87a00" d="M468.1 827.8 598.5 845l-68.7-66.3Z"/><path fill="#f49f00" d="m469.3 827.3 52.2 122 77-104.3Z"/><path fill="#ffb308" d="m521.5 949.3-51.4-122.8-69.5 77.8Z"/><path fill="#ffa600" d="m395.5 910.9 6-6.6 121.2 45Z"/><path fill="#ffc61d" d="m330.2 783.1 13.5 66.7 129.2-22.9Z"/><path fill="#ec9300" d="m330.8 783.7 138.5 43.6 60.5-48.6Z"/><path fill="#ffbb14" d="M343.5 849.28 396 911l73.3-83.7Z"/><path fill="#ffa901" d="m293.7 879.8 51.2-30 52.1 61.6Z"/><path fill="#ffc319" d="m288 832 6.816 47 50.884-29.883Z"/><path fill="#ffa901" d="m233 819 61 61-6-49Z"/><path fill="#ffd832" d="m330.7 783.4 14.2 66.4-59.3-17.8Z"/><path fill="#ffc721" d="m232.3 819 98.4-35.6-45.1 48.6Z"/><path fill="#ffc823" d="m431.3 477.7 94.9 37.9V334.2Z"/><path fill="#ffbd11" d="m378.1 437.3 24.9 39.1h32Z"/><path fill="#ffc524" d="m401.6 535.2 1.4-59.9 32 1.1Z"/><path fill="#ffce2c" d="m400.6 535.7-7.5 51.6 40.7-109.7Z"/><path fill="#ffc016" d="m393.5 586.9 132.7-73.3-92.4-37.2Z"/><path fill="#ffb708" d="m465.8 621 60.4 32V513.1Z"/><path fill="#ffc011" d="m390.1 586.9 75.7 34.1 60.4-107.9Z"/><path fill="#f59f00" d="M526.2 652.5v106l-100.6-71Z"/><path fill="#ffb609" d="m426.7 688.6 39.1-71.1 60.4 35.5Z"/><path fill="#ffc01a" d="m426.5 690.3-35.4-103.6 74.7 30.8Z"/><path fill="#d57900" d="m325.5 762.2 100-74.8 100.7 69.9Z"/><path fill="#e08500" d="m320 713.5 6.4 47.7 101.5-72.6Z"/><path fill="#f89f00" d="m343.2 625.7 85.2 62.7-110.1 26.3Z"/><path fill="#ffba0c" d="m393.5 586.4 32 99.8-83.3-59.1Z"/><path fill="#ffce2c" d="m353.1 582.3 40.9 4.6 7.1-51.7Z"/><path fill="#ffc41f" d="m342.7 626.6 51.5-39.8-40-4.7Z"/><path fill="#da7f00" d="M111.4 597.3 205 715.9l20.2-27.3Z"/><path fill="#d07700" d="m222.8 688.6 105.5 73.5-124.4-46.2Z"/><path fill="#f09600" d="m224 689.8 103 71.6-7-47.9Z"/><path fill="#ffae05" d="m343.7 625.8-24.9 87.7-96.3-24.7Z"/><path fill="#ffbe1a" d="m276.9 573-54.1 115.6L344.9 627Z"/><path fill="#ffcd29" d="m275.4 571.5 68.1 55.2 10.9-44.8Z"/><path fill="#fb9c00" d="m173 559.4 105.8 12.2L224 689.8Z"/><path fill="#e38500" d="m174.1 559.8 49.9 130-113.7-93Z"/><path fill="#ffae07" d="m244.1 514.4 34.2 59.4-106.4-14Z"/><path fill="#fea200" d="m113.1 468.6-2.9 127.5 65.2-36.7Z"/><path fill="#ffad02" d="m211 455.1-35.6 104.3-62.8-91.4Z"/><path fill="#fea500" d="m209.4 454.6 34.7 62.1-71.1 42.7Z"/><path fill="#ffaf0a" d="m208.3 454.6 48.7 7.2-12.9 54.9Z"/><path fill="#ffaa03" d="m208.4 454.9 81.6-25.5-34 32.8Z"/><path fill="#ffda35" d="m407.6 265.9 118.6-117.6v187.1Z"/><path fill="#ffcd23" d="m376.9 397 28.5-134.5 120.8 71.7Z"/><path fill="#ffce28" d="m332 383.5 44.9 14.7 31.2-134.5Z"/><path fill="#ffd834" d="m374.6 397.5 151.6-63.3-94 142.8Z"/><path fill="#ffc21b" d="m375.1 398 2.3 40.3 54 37Z"/><path fill="#ffbb14" d="m375.7 397 2.4 41.5-48.3-22.6Z"/><path fill="#ffae08" d="m330.7 383-2.4 33 49.8-17.8Z"/><path fill="#ffd331" d="m230.4 361 177.7-96.6-76.2 120.8Z"/><path fill="#ffc722" d="m231.1 360.3 102.1 23.5-124.9 71.9Z"/><path fill="#ffb806" d="m232.8 356.7-24.2 98.4-96.5 13.8Z"/><path fill="#ffc620" d="m112.6 470.5 75.8-142.2 43.9 30.8Z"/><path fill="#ffce26" d="m305.8 225.2-74.7 133.9-42.7-30.8Z"/><path fill="#ffe350" d="M526.2 148.1 408.9 265.5 307 224Z"/><path fill="#ffd839" d="m306.3 223.5 103.6 41.2L229 362.4Z"/><path fill="#ffb40f" d="m332.6 382.3-3.1 33.7-120.7 39.7Z"/><path fill="#ffc620" d="m227.8 167.5 43.6 28.1 11.9-15.5Z"/><path fill="#ffce2c" d="m283.5 156.5-.2 23.6L228 168Z"/><path fill="#ffde3f" d="m278.5 138.7 4.8 17.7-56.3 12.3Z"/><path fill="#ffd935" d="m228.7 169.1 26.3-51.3 23.1 21.1Z"/><path fill="#ffd935" d="m229.3 169.1-13.2-52.5 39.8 1.4Z"/><path fill="#ffbc11" d="m229.5 168.7-13-52-26.7 32.1Z"/><path fill="#ffc420" d="m228.7 168.3-39.5-20.7-.1 23.5Z"/><path fill="#ffb910" d="m229.7 167.8-35.3 20.6-6-17.7Z"/><path fill="#ffad09" d="m230.2 167.4-4.8 45-31.6-24.4Z"/><path fill="#ffb811" d="m251.3 211-22.6-42.7-3.8 44.1Z"/><path fill="#ffb208" d="m271.4 195.6-42.7-27.3 21.4 42.7ZM269.5 257.1l2.5-62.4 34.8 29.6Z"/><path fill="#ffbd11" d="m269.5 257-19.3-46.2 21.8-16.2Z"/><path fill="#ffc620" d="m825.7 168.7-43.6 28-11.9-15.4Z"/><path fill="#ffce2c" d="m770 157.7.2 23.6 55.3-12.2Z"/><path fill="#ffde3f" d="m775 139.9-4.8 17.7 56.3 12.2Z"/><path fill="#ffd935" d="M824.8 170.3 798.5 119l-23.1 21.1Z"/><path fill="#ffd935" d="m824.2 170.3 13.2-52.5-39.8 1.4Z"/><path fill="#ffbc11" d="m824 169.8 13-51.9 26.7 32.1Z"/><path fill="#ffaa03" d="m824.8 169.5 39.5-20.7.1 23.5Z"/><path fill="#fca400" d="m823.8 169 35.3 20.6 6-17.7Z"/><path fill="#fb9e00" d="m823.3 168.6 4.8 45 31.6-24.4Z"/><path fill="#ffb811" d="m802.2 212.1 22.6-42.6 3.8 44.1Z"/><path fill="#ffb208" d="m782.1 196.7 42.7-27.2-21.4 42.6Z"/><path fill="#e88e00" d="m744.3 223.6 61.5-11.1-23 40.8Z"/><path fill="#fca500" d="m744.5 223.6 40.8-28.9 20.7 17.7Z"/></svg>
