<svg xmlns="http://www.w3.org/2000/svg" viewBox="0 0 97 76" fill="none"><path fill="#F8B500" d="M70.091 27.16a6.49 6.49 0 0 0-6.488 6.49 6.488 6.488 0 1 0 12.978 0 6.49 6.49 0 0 0-6.49-6.49m-42.836 0a6.49 6.49 0 1 0 0 12.98 6.49 6.49 0 0 0 0-12.98M9.182 18.977a6.5 6.5 0 0 1-1.898-4.592 6.474 6.474 0 0 1 6.49-6.49c1.664 0 3.327.631 4.593 1.896l-1.517 1.12A51.67 51.67 0 0 1 48.672 0C60.671 0 71.7 4.08 80.495 10.911l-1.512-1.115A6.46 6.46 0 0 1 83.575 7.9c1.659 0 3.324.63 4.587 1.897a6.51 6.51 0 0 1 1.893 4.593 6.47 6.47 0 0 1-1.893 4.594l1.515 1.113c21.944 21.942-15.406 31.822-15.406 31.822H23.075c-1.077 0-38.88-8.35-15.406-31.822zM82.897 75.094a7.894 7.894 0 0 1-7.894-7.895 7.893 7.893 0 1 1 15.787 0 7.893 7.893 0 0 1-7.893 7.895M18.038 75.812a7.894 7.894 0 0 1-7.895-7.895 7.894 7.894 0 0 1 7.895-7.894 7.894 7.894 0 0 1 7.896 7.894 7.894 7.894 0 0 1-7.896 7.895M25.055 53.549h47.402s-22.981 7.899-47.402 0"/></svg>
