<svg xmlns="http://www.w3.org/2000/svg" fill="none" viewBox="0 0 396 114"><path fill="#F8B500" d="M89.408 46.477a6.49 6.49 0 0 0-6.488 6.49 6.488 6.488 0 1 0 12.978 0 6.49 6.49 0 0 0-6.49-6.49m-42.836 0a6.49 6.49 0 1 0 0 12.98 6.49 6.49 0 0 0 0-12.98M28.5 38.295a6.5 6.5 0 0 1-1.897-4.593 6.474 6.474 0 0 1 6.49-6.49c1.663 0 3.327.631 4.592 1.896l-1.517 1.12a51.67 51.67 0 0 1 31.822-10.91c11.999 0 23.028 4.078 31.823 10.91L98.3 29.113a6.47 6.47 0 0 1 4.592-1.897c1.659 0 3.324.63 4.588 1.897a6.52 6.52 0 0 1 1.892 4.593 6.47 6.47 0 0 1-1.892 4.594l1.514 1.113c21.944 21.942-15.406 31.822-15.406 31.822H42.392c-1.077 0-38.88-8.35-15.406-31.822zM102.214 94.411a7.894 7.894 0 0 1-7.894-7.895 7.893 7.893 0 1 1 15.787 0 7.89 7.89 0 0 1-7.893 7.895M37.355 95.13a7.894 7.894 0 0 1-7.895-7.896 7.894 7.894 0 0 1 7.895-7.893 7.894 7.894 0 0 1 7.896 7.893 7.894 7.894 0 0 1-7.896 7.895M44.372 72.866h47.402s-22.981 7.899-47.402 0"/><path fill="#F7F7F7" d="M142 79.928V33.446h13.836c3.571 0 6.886.574 9.947 1.786 3.06 1.147 5.675 2.805 7.779 4.846 4.272 4.144 6.822 10.01 6.822 16.514 0 3.379-.637 6.567-1.913 9.5-1.275 2.933-3.06 5.356-5.228 7.396-4.4 4.017-10.648 6.44-17.407 6.44zm4.91-41.89v37.3h8.735c3.889 0 7.332-.83 10.265-2.423 2.997-1.595 5.356-3.762 6.95-6.568 1.658-2.805 2.487-6.057 2.487-9.628 0-5.292-1.977-10.01-5.356-13.39-3.315-3.315-8.48-5.292-14.346-5.292zm86.587 18.554c0 4.4-1.02 8.416-2.997 12.05q-3.06 5.452-8.416 8.608c-3.634 2.104-7.588 3.188-12.051 3.188-3.252 0-6.312-.637-9.245-1.849-2.869-1.211-5.356-2.869-7.397-5.037-2.04-2.04-3.634-4.527-4.845-7.46-1.148-2.933-1.786-5.993-1.786-9.245q0-6.6 3.061-12.051c1.976-3.635 4.782-6.568 8.416-8.672C201.808 34.02 205.825 33 210.224 33c3.252 0 6.313.574 9.246 1.785 2.869 1.276 5.356 2.933 7.396 4.974 2.04 2.168 3.698 4.654 4.846 7.523 1.211 2.934 1.785 5.994 1.785 9.31m-5.037.255c0-5.229-1.913-10.075-5.101-13.581s-7.97-5.739-13.326-5.739c-3.443 0-6.567.893-9.373 2.55-2.805 1.786-4.973 4.081-6.503 6.95q-2.296 4.4-2.296 9.565c0 5.164 1.913 10.074 5.101 13.517 3.188 3.507 7.97 5.739 13.262 5.739 3.444 0 6.568-.893 9.373-2.615 2.87-1.657 5.037-4.017 6.568-6.886 1.53-2.87 2.295-6.057 2.295-9.5m43.932 18.618v4.463h-33.539v-4.463l27.672-37.555H239.81v-4.464h32.454v4.464l-27.8 37.555zm38.192 0v4.463h-33.538v-4.463l27.672-37.555h-26.715v-4.464h32.454v4.464l-27.8 37.555zm8.927 4.463V33.446h4.91v41.891h22.061v4.591zm34.622 0V33.446h29.075v4.527h-24.165v16.068h22.125v4.527h-22.125v16.833h24.42v4.527z"/></svg>
