<svg xmlns="http://www.w3.org/2000/svg" viewBox="0 0 833 834"><clipPath id="a"><path d="M-110 908H914V-116H-110Z" clip-rule="evenodd"/></clipPath><g clip-path="url(#a)"><path fill="#b60" d="m661.6 556 77 43.9-118.5 46.2-42.9-2Z"/><path fill="#b25b00" d="m786 467.1-49.3 134.3 95.5-118.9Z"/><path fill="#c76e00" d="m786 467.1-48.6 132.8-77-42.7Z"/><path fill="#e08000" d="m662 557.1 9-105.4 116.2 15.4Z"/><path fill="#ffaa03" d="m617.9 467.8 55.3-17.2-10.9 108.8Z"/><path fill="#ef9100" d="m544.2 505 73.5-37.9 43.9 90.1Z"/><path fill="#ce6e00" d="m502.3 582 76.3 60.5L664 555Z"/><path fill="#eb8b00" d="M502.7 582.1 544 498l116.4 58Z"/><path fill="#f79900" d="m413 534 90.6 50.7 40.6-82Z"/><path fill="#ffa902" d="M416.2 398.4v137.5l128-32Z"/><path fill="#f59900" d="m541 508 29-54 48.9 13.1Z"/><path fill="#fea400" d="m532 429 12.1 75 28.6-48.7Z"/><path fill="#ffaf06" d="M413.5 396.3 544.8 505l-11.1-75.3Z"/><path fill="#f79900" d="m535 396-6 33 41.3 26.3Z"/><path fill="#fea200" d="m545.4 341.5-14.1 88.6-115.1-32.9Z"/><path fill="#be6800" d="m830 354-45 114 46 14.5Z"/><path fill="#dd7c00" d="M786.2 468.2 831 353.3l-72.5 41.3Z"/><path fill="#c96b00" d="m759.9 393.6 27.3 74.7-116.4-16Z"/><path fill="#dd8200" d="M731.8 356.4 673 454l86.9-60.4Z"/><path fill="#ea8c00" d="m731 355 28 40 72-41.7-96 .7Z"/><path fill="#ea8c00" d="M732.7 355.7 755 325l76 29.5Z"/><path fill="#f59b00" d="M682.9 337.9 697 417l35.2-59.8Z"/><path fill="#f59b00" d="m667.5 320.1 49.3 56.5 15.9-19.7Z"/><path fill="#fea500" d="m623.6 297.6 132.8 27.3-24.9 32Z"/><path fill="#ca7000" d="M754 209.9V326l76 28Z"/><path fill="#e28100" d="M691.2 253.8 755 326l-1-117.3Z"/><path fill="#f49900" d="m624.8 298.215 68.8-44.415 61.7 72.2Z"/><path fill="#ffb10b" d="m514 276 112.624 23L695 253Z"/><path fill="#ffbb13" d="M515.1 276.1 545 341l30-26.8 53.4-18.9Z"/><path fill="#ffa905" d="m516 276 30 66-130 58Z"/><path fill="#faa100" d="m636 107 56.4 146.8 61.6-43.9Z"/><path fill="#ffb812" d="M416.2 218.2 416 400l101-123.7Z"/><path fill="#ffcb24" d="m416.2 218.2 126.8-64-27.2 122.1Z"/><path fill="#ffc31c" d="m541 152-26.4 124.3 180.1-22.5Z"/><path fill="#ffb10a" d="m543 154.2 94-47.2 56.6 148Z"/><path fill="#ffc119" d="m416.2 33.3 125.7 123.3L639 108Z"/><path fill="#bf6700" d="m416.2 641.3 164.5 2.1-76.8-61.3Z"/><path fill="#e68d00" d="M416.2 641.3 416 529l89.3 54Z"/><path fill="#ffd027" d="M416.2 33.3v184.9L543 155.4Z"/><path fill="#cd7500" d="m647.3 712.4 65.2-9.8-93.6-33.3Z"/><path fill="#c06900" d="m645 711 11.8 52.4L712 702Z"/><path fill="#d47b00" d="m550.7 797.8 96.6-87.7 9.5 53.3Z"/><path fill="#eb8e00" d="m485 728 80.6 56.8 82.9-74.7Z"/><path fill="#c66d00" d="m488.8 728.3 130.1-59.7 30.7 42.6Z"/><path fill="#bd6200" d="M488.2 728.9 549 665l69.6 4.3Z"/><path fill="#cf7100" d="m419 663 69 68 61.1-66.1Z"/><path fill="#d57500" d="m412 833 140.5-35.2 15-15.6Z"/><path fill="#e08400" d="m411.1 833 76.2-104 78.6 54.8Z"/><path fill="#d87a00" d="M358.1 711.8 488.5 729l-68.7-66.3Z"/><path fill="#f49f00" d="m359.3 711.3 52.2 122 77-104.3Z"/><path fill="#ffb308" d="m411.5 833.3-51.4-122.8-69.5 77.8Z"/><path fill="#ffa600" d="m285.5 794.9 6-6.6 121.2 45Z"/><path fill="#ffc61d" d="m220.2 667.1 13.5 66.7 129.2-22.9Z"/><path fill="#ec9300" d="m220.8 667.7 138.5 43.6L421 663Z"/><path fill="#ffbb14" d="M233.5 733.28 286 795l75-84Z"/><path fill="#ffa901" d="m183.7 763.8 51.2-30 52.1 61.6Z"/><path fill="#ffc319" d="m178 716 7 48 51-31Z"/><path fill="#ffa901" d="m123 703 62 61-6-50Z"/><path fill="#ffd832" d="m221 667 13.9 66.8-59.3-17.8Z"/><path fill="#ffc721" d="m122.3 703 98.4-35.6-45.1 48.6Z"/><path fill="#ffc823" d="m321.3 361.7 94.9 37.9L416 216Z"/><path fill="#ffbd11" d="m268.1 321.3 24.9 39.1h32Z"/><path fill="#ffc524" d="m291.6 419.2 1.4-59.9 32 1.1Z"/><path fill="#ffce2c" d="M287.314 422.489 283 472l43-113Z"/><path fill="#ffc016" d="m282 471 134.2-73.4-92.4-37.2Z"/><path fill="#ffb708" d="m354 504 62.2 33V397.1Z"/><path fill="#ffc011" d="m280.1 470.9 75.7 34.1 60.4-107.9Z"/><path fill="#f59f00" d="M416.2 536.5v106l-100.6-71Z"/><path fill="#ffb609" d="M316.7 572.6 355 501l61.2 36Z"/><path fill="#ffc01a" d="m316.5 574.3-35.4-103.6 74.7 30.8Z"/><path fill="#d57900" d="m215.5 646.2 100-74.8 100.7 69.9Z"/><path fill="#e08500" d="m209 598 7.4 47.2 101.5-72.6Z"/><path fill="#f89f00" d="m233.2 509.7 85.2 62.7-110.1 26.3Z"/><path fill="#ffba0c" d="m283.5 470.4 32 99.8-83.3-59.1Z"/><path fill="#ffce2c" d="M243.1 466.3 285 472l6.1-52.8Z"/><path fill="#ffc41f" d="m233 512 51.2-41.2-40-4.7Z"/><path fill="#da7f00" d="M1.4 481.3 95 599.9l20.2-27.3Z"/><path fill="#d07700" d="m112.8 572.6 105.5 73.5-124.4-46.2Z"/><path fill="#f09600" d="m114 573.8 103 71.6-7-47.9Z"/><path fill="#ffae05" d="M233.7 509.8 210 599l-97-25Z"/><path fill="#ffbe1a" d="M166.9 457 113 574l121.9-63Z"/><path fill="#ffcd29" d="m165 456 69 56 10.4-46.1Z"/><path fill="#fb9c00" d="m63 443.4 105.8 12.2L114 573.8Z"/><path fill="#e38500" d="m64.1 443.8 49.9 130-113.7-93Z"/><path fill="#ffae07" d="m134.1 398.4 34.2 59.4-106.4-14Z"/><path fill="#fea200" d="M3.1 352.6.2 480.1 68 444Z"/><path fill="#ffad02" d="M101 337 65.4 443.4 2.6 352Z"/><path fill="#fea500" d="m99.4 338.6 34.7 62.1L63 443.4Z"/><path fill="#ffaf0a" d="m98.3 338.6 48.7 7.2-13 56.2Z"/><path fill="#ffaa03" d="M98.4 338.9 180 312l-34 34.2Z"/><path fill="#ffda35" d="M297.6 149.9 416.2 32.3v187.1Z"/><path fill="#ffcd23" d="m266.9 281 28.5-134.5 120.8 71.7Z"/><path fill="#ffce28" d="m222 267.5 44.9 14.7 31.2-134.5Z"/><path fill="#ffd834" d="M264.6 281.5 416 218l-93.8 143Z"/><path fill="#ffc21b" d="m265.1 282 2.3 40.3 54 37Z"/><path fill="#ffbb14" d="m265.7 281 2.4 41.5-48.3-22.6Z"/><path fill="#ffae08" d="m221 266-2.7 34 49.8-17.8Z"/><path fill="#ffd331" d="m120.4 245 177.7-96.6-76.2 120.8Z"/><path fill="#ffc722" d="m121.1 244.3 102.1 23.5L98 341Z"/><path fill="#ffb806" d="m122.8 240.7-24.2 98.4-96.5 13.8Z"/><path fill="#ffc620" d="m2.6 354.5 75.8-142.2 43.9 30.8Z"/><path fill="#ffce26" d="m195.8 109.2-74.7 133.9-42.7-30.8Z"/><path fill="#ffe350" d="M416.2 32.1 298.9 149.5 197 108Z"/><path fill="#ffd839" d="m196.3 107.5 103.6 41.2L119 246.4Z"/><path fill="#ffb40f" d="m222.6 266.3-3.1 33.7-120.7 39.7Z"/><path fill="#ffc620" d="m117.8 51.5 43.6 28.1L174 63Z"/><path fill="#ffce2c" d="m173 39 .3 25.1L118 52Z"/><path fill="#ffde3f" d="m168 21 5.3 19.4L117 52.7Z"/><path fill="#ffd935" d="M118.7 53.1 145 1.8l23.1 21.1Z"/><path fill="#ffd935" d="M119.3 53.1 106.1.6 145.9 2Z"/><path fill="#ffbc11" d="M119.5 52.7 107 0 79.8 32.8Z"/><path fill="#ffc420" d="M118.7 52.3 79.2 31.6l-.1 23.5Z"/><path fill="#ffb910" d="M119.7 51.8 84.4 72.4l-6-17.7Z"/><path fill="#ffad09" d="m120.2 51.4-4.8 45L83.8 72Z"/><path fill="#ffb811" d="M141.3 95 119 52l-4.1 44.4Z"/><path fill="#ffb208" d="m162 79-43-27 20 44Z"/><path fill="#ffb208" d="M159.5 141.1 161 79l35.8 29.3Z"/><path fill="#ffbd11" d="m159.5 141-19.3-46.2L162 78.6Z"/><path fill="#ffc620" d="m715.7 52.7-43.6 28L660 64Z"/><path fill="#ffce2c" d="m660 41 .2 24.3 55.3-12.2Z"/><path fill="#ffde3f" d="m665 23-4.8 18.6 56.3 12.2Z"/><path fill="#ffd935" d="M714.8 54.3 688.5 3l-23.1 21.1Z"/><path fill="#ffd935" d="m714.2 54.3 13.2-52.5-39.8 1.4Z"/><path fill="#ffbc11" d="M714 53.8 725.36 1 755 33.618Z"/><path fill="#ffaa03" d="m714.8 53.5 39.5-20.7L754 57Z"/><path fill="#fca400" d="m713.8 53 35.3 20.6 6-17.7Z"/><path fill="#fb9e00" d="m713.3 52.6 4.8 45L750 72Z"/><path fill="#ffb811" d="m692.2 96.1 22.6-42.6 3.8 44.1Z"/><path fill="#ffb208" d="m671 80 44-27-21.6 43.1Z"/><path fill="#e88e00" d="m634 107 62-11-25 43Z"/><path fill="#fca500" d="m634.5 107.6 40.8-28.9L696 96.4Z"/></g></svg>