<svg xmlns="http://www.w3.org/2000/svg" viewBox="0 0 1024 1024"><style>.c0{fill:#B25B00}.c1{fill:#C76C00}.c2{fill:#DD8000}.c3{fill:#EE9400}.c4{fill:#FFA600}.c5{fill:#FFBC11}.c6{fill:#FFD028}</style><path class="c1" d="m808 677.3 94.5 55.9-143.6 56-51.7-3z"/><path class="c0" d="M956.9 570.9 899 736.6l117-145.7z"/><path class="c2" d="m806.5 683.2 14.7-131.9 140.3 20.9z"/><path class="c3" d="m753.4 572 69.8-19.8-13 127.9z"/><path class="c3" d="m666.8 618.2 89.2-46 56.8 111.2z"/><path class="c1" d="m960 572.2-58.9 161-91.6-53.1z"/><path class="c1" d="m616 711.5 92.4 74.4 102.4-107.4z"/><path class="c3" d="m616 714.2 50.6-104.5L812 680.1z"/><path class="c3" d="m507.8 653.3 109.8 61.5 49.2-99.4z"/><path class="c4" d="M511.6 489v166.6l155.2-38.8z"/><path class="c3" d="m663 621.8 35.1-65.4 61.6 15.7z"/><path class="c4" d="m652 526 13.3 95.7 36.1-63.8z"/><path class="c4" d="m505.1 485 161.2 133.7-.7-11.9-11.5-79.9z"/><path class="c3" d="m655.7 486-7.3 40 50.1 31.9z"/><path class="c4" d="m668.3 420-17.1 107.4-139.6-39.9z"/><path class="c1" d="m1012.9 432.1-54.1 141.2 55.8 17.6z"/><path class="c2" d="m960.3 573.6 54.2-141.5-87.8 52.2z"/><path class="c1" d="m928.4 483.1 33.1 90.6-141.2-19.4z"/><path class="c2" d="m894.3 438-73.1 118.5 108.4-72.8z"/><path class="c3" d="m891.3 436.2 36.9 48.4 86.3-50.8-113.3-14.2z"/><path class="c3" d="m895.4 437.2 27-37.2 91.4 34.4z"/><path class="c3" d="m835 415.6 17.1 95.9 42.7-72.5z"/><path class="c3" d="m816.3 394 59.8 68.5 19.3-23.9z"/><path class="c4" d="m762.4 365.4 161.7 34.5-30 39.8z"/><path class="c1" d="M921.2 260.4v140.8l92.2 33.9z"/><path class="c2" d="m845.1 313.7 77.3 87.5-1.2-142.2z"/><path class="c3" d="m761.3 366.5 86-54.5 76.7 89.7z"/><path class="c5" d="m627.8 340.3 136.8 27.4 85.1-55z"/><path class="c5" d="m631.6 340.7 36.2 78.7 36.4-32.5 62.2-20.6z"/><path class="c4" d="m632.6 340.6 36.4 80-157.6 70.3 1.2-8.1z"/><path class="c4" d="m778.1 135.7 68.4 178 74.7-53.3z"/><path class="c5" d="M511.4 269.3v221.6l122.5-150z"/><path class="c6" d="m511.6 270.5 153.8-77.6-33 148z"/><path class="c5" d="m663 190.3-32.1 150.6 218.4-27.2z"/><path class="c5" d="m665.4 192.9 114-57.2L848 315.1z"/><path class="c5" d="M510.3 44.4 664 195.8l117.8-58.9z"/><path class="c1" d="m511.6 783.4 200.1 2.5-93.7-74.3z"/><path class="c3" d="m511.5 784.1.1-128.8 107.1 57.4z"/><path class="c6" d="m511.8 45.2-.4 226.6 154-77.4z"/><path class="c1" d="m791.8 880.1 79.1-11-113.5-37.4z"/><path class="c1" d="m789.1 878.6 13.7 59.7 67.5-69.8z"/><path class="c2" d="m669.9 976.8 121.9-99.2 11.6 60z"/><path class="c3" d="m595.1 897.7 97.7 63.9 100.5-84z"/><path class="c1" d="m599.7 898.1 157.7-67.2 37.2 47.9z"/><path class="c0" d="m598.9 898.7 69.1-71.8 89 4.8-140.7 61.5z"/><path class="c1" d="m511.5 825 87.2 76.1 74.1-74.4z"/><path class="c2" d="M506.5 1015.9 677 975.2l18.1-16.5-177.8 48.4z"/><path class="c2" d="m512 1016.2 87.3-119.3 93.8 63.6-177.3 55.4z"/><path class="c2" d="m441.2 879.5 158.1 21.1-87.3-76z"/><path class="c3" d="m442.6 878.9 67.5 137 3.6-.2 85.6-116.9z"/><path class="c5" d="m512 1016.2-68.4-138.1-84.3 87.5 145.8 49.8z"/><path class="c4" d="m353.2 973 7.1-9.8 147.1 53.1z"/><path class="c6" d="m274 829.2 17.1 76.8 153.5-25.9-9.6-4.9z"/><path class="c3" d="m274.7 829.8 169.9 50.7 13.4-12 54-43.6z"/><path class="c5" d="m290.1 903.7 63.7 69.4 90.9-94.5z"/><path class="c4" d="m229.7 938 62.1-33.7 67.2 70.4z"/><path class="c5" d="m222.8 884.3 8.5 53.9 64.6-34.2z"/><path class="c4" d="m156.1 869.6 77.3 69.3L224 882z"/><path class="c6" d="m273.5 830 5.1 3.6 13.2 70.7-71.9-20z"/><path class="c6" d="m155.3 869.6 119.3-40-6.9 10.8-45.2 45z"/><path class="c6" d="m396.6 444.5 116 46.1V266z"/><path class="c5" d="m332.1 395.5 30.2 47.4h38.8z"/><path class="c6" d="m360.6 514.2 1.7-72.6 40.8-.3z"/><path class="c6" d="m355.3 518.2-5.2 60 52.2-137z"/><path class="c5" d="m348.9 577 162.7-89-112-45.1z"/><path class="c5" d="m436.2 617 76.4 41.7V484.1z"/><path class="c5" d="m346.6 576.8 91.8 41.4 74.2-132z"/><path class="c4" d="m512.6 653.9.3 129.1-3.7-.5-122.3-83.7c-1.2 0 125.7-44.9 125.7-44.9"/><path class="c5" d="m389.2 702.2 49.3-88.1 73.5 40.4-.4 2.5z"/><path class="c5" d="m390.3 707.8-42.5-131.2 92.9 38.1z"/><path class="c2" d="M266.8 788.5 377.9 705l15.2-4.5 119.5 82.8z"/><path class="c2" d="m260.4 730.9 9 57.2 123.7-90.4z"/><path class="c4" d="m289.8 623.9 103.3 77.2-4.9 1.9-128.6 28.8z"/><path class="c5" d="m350.7 576.2 42.4 126-104.6-76.6z"/><path class="c6" d="m301.8 571.3 50.8 6.9 7.4-64z"/><path class="c6" d="m289.5 626.7 65.4-49.6-51.6-8.5z"/><path class="c2" d="m8.7 589.4 113.5 143.8 24.5-33.1L17.3 592.8z"/><path class="c1" d="m143.8 700.1 127.9 89.1-150.8-56z"/><path class="c3" d="M142.8 700.5v2.8l127.3 85.1-8.5-58.1z"/><path class="c4" d="m292.9 624.1-31.3 108L144 701.8l144.3-77.6z"/><path class="c5" d="m209.4 560-67.7 143.9 150.1-78.5z"/><path class="c6" d="m207.1 558.8 83.6 67.9 14.8-59.2z"/><path class="c4" d="m83.4 543.5 128.3 14.8-66.5 143.3z"/><path class="c2" d="m84.7 544 63.2 161.6L7.4 588.8z"/><path class="c4" d="m169.6 489 41.5 72-131.4-16.2z"/><path class="c4" d="M10.8 432.1 8 589.8l81.4-45.6z"/><path class="c4" d="m129.5 414.5-43.2 129-76.1-110.8z"/><path class="c4" d="m127.5 416.5 42.1 75.2-86.3 53.4z"/><path class="c4" d="m126.2 416.5 59 8.7-15.7 68.1z"/><path class="c4" d="m126.3 416.8 98.9-32.6-41.2 41.5-56.7-7.2z"/><path class="c6" d="M367.8 187.7 512.4 44.3l.4 225.4-4.8.3z"/><path class="c6" d="m329 349.3 36.2-165.7 146.4 86.9z"/><path class="c6" d="m276.2 330.3 55.1 19.5L368.4 185z"/><path class="c6" d="m327.8 347.2 184.8-78.6-114.5 176.6z"/><path class="c5" d="m327.7 344.1 3.5 52.6 65.5 44.9z"/><path class="c5" d="m329.2 346.6 3.7 50.5-64.4-28.8z"/><path class="c4" d="m275 328.5-3.3 41.2 60.4-21.6z"/><path class="c6" d="m151.8 303.1 216.6-117.2 1.1 1.7-93.4 144.7z"/><path class="c6" d="m153.8 302.1 123.8 28.5-151.8 88.8 1.1-10.3z"/><path class="c5" d="m155.9 297.8-29.3 119.3L9.5 433.8z"/><path class="c6" d="m10.2 435.7 91.9-172.3 53.2 37.3z"/><path class="c6" d="m243.8 136.4 4.8.6-93.8 165.8-53.2-38.5z"/><path class="c6" d="M512 45.2v5.1L369.4 187.2l-123.5-50.3z"/><path class="c6" d="m247.8 136.4 122.8 49.9-219.3 118.4z"/><path class="c5" d="m276.9 328.8-3.8 40.9-146.3 48.1z"/><path class="c6" d="m149.8 68.4 52.9 34.1L218 82.4z"/><path class="c6" d="m216.8 53.3.9 29.8-69.6-13.7z"/><path class="c6" d="m209.6 31.6 7.5 23.4-68.2 14.9z"/><path class="c6" d="m150.9 70.4 31.9-62.2 28.3 25.6z"/><path class="c6" d="M151.6 70.4 137 7.2l46.9 1.2z"/><path class="c5" d="M153.1 69.5 137.8 6.8l-34 39z"/><path class="c6" d="m156.3 70-52.7-25.7-.7 28.9z"/><path class="c5" d="m156.7 67.7-47.4 26.1-7.2-21.5z"/><path class="c4" d="m152.7 68.3-5.8 54.6-38.3-29.6z"/><path class="c5" d="m178.3 121.2-26.5-53-5.5 54.7z"/><path class="c5" d="m203.4 101.8-53-34.6 25.1 55.2z"/><path class="c5" d="m200.4 177 1.8-75.2 43.4 35.5z"/><path class="c5" d="M203.2 180 177 120.9l26.4-19.6z"/><path class="c6" d="m877.8 68.7-55.9 35.1L808 83.1z"/><path class="c6" d="m807.2 55.7.3 29.5 69-15z"/><path class="c6" d="M813.3 33.9 807 58.1l68.7 13.1z"/><path class="c6" d="M873.7 71.8 841.8 9.6l-28 25.6z"/><path class="c6" d="M872.7 73.5 889 8.2l-48.9 1.6z"/><path class="c5" d="m869.9 74.2 16.6-67 35.9 39.5z"/><path class="c4" d="m871.7 71.2 49.9-25.4.2 29.4z"/><path class="c4" d="m869.9 70 45.4 25.2 7.2-21.4z"/><path class="c4" d="m871.9 69.8 5.8 54.5 38.7-31z"/><path class="c5" d="m846.3 122.5 26.9-52.9 5.1 54.7z"/><path class="c5" d="m820.6 103 54.9-34.1-27.8 53.6z"/><path class="c3" d="m775.7 135.7 75.2-13.3-30.3 52.1z"/><path class="c4" d="m773 138 52.8-36.6 27.8 21.9z"/></svg>
